<?xml version="1.0" encoding="utf-8"?>
<!-- Generator: Adobe Illustrator 25.1.0, SVG Export Plug-In . SVG Version: 6.00 Build 0)  -->
<svg version="1.1" id="Слой_1" xmlns="http://www.w3.org/2000/svg" xmlns:xlink="http://www.w3.org/1999/xlink" x="0px" y="0px"
	 viewBox="0 0 152 152" style="enable-background:new 0 0 152 152;" xml:space="preserve">
<style type="text/css">
	.st0{fill:#FFFFFF;}
</style>
<g>
	<circle class="st0" cx="76" cy="76" r="76.5"/>
	<g>
		<path d="M96.32,112.75c-0.62-1.41-1.22-2.82-1.8-4.25H57.48c-0.58,1.43-1.18,2.84-1.8,4.25H96.32z"/>
		<path d="M98.78,118.06H53.22c-0.87,1.79-1.77,3.56-2.72,5.31h51C100.55,121.62,99.65,119.85,98.78,118.06z"/>
		<path d="M59.11,104.25h33.78c-0.52-1.4-1.01-2.82-1.49-4.25H60.6C60.12,101.43,59.63,102.85,59.11,104.25z"/>
		<path d="M96.72,52.19L86.36,38.91L76,25.62L65.64,38.91L55.28,52.19H70.8c-2.03,16.28-4.84,30.99-9.15,44.62h28.71
			c-4.31-13.63-7.12-28.35-9.15-44.62H96.72z"/>
	</g>
</g>
</svg>
